<svg xmlns="http://www.w3.org/2000/svg" viewBox="0 0 1200 900">
  <!-- Background -->
  <rect width="1200" height="900" fill="#f8f9fa" />
  
  <!-- Title -->
  <text x="600" y="50" font-family="Arial, sans-serif" font-size="32" font-weight="bold" text-anchor="middle" fill="#333">Enterprise AI Architecture</text>
  
  <!-- Main Sections -->
  <rect x="50" y="100" width="1100" height="200" rx="10" fill="#e6f7ff" stroke="#1890ff" stroke-width="2"/>
  <text x="600" y="130" font-family="Arial, sans-serif" font-size="24" font-weight="bold" text-anchor="middle" fill="#1890ff">User Interface Layer</text>
  
  <rect x="50" y="320" width="1100" height="280" rx="10" fill="#f6ffed" stroke="#52c41a" stroke-width="2"/>
  <text x="600" y="350" font-family="Arial, sans-serif" font-size="24" font-weight="bold" text-anchor="middle" fill="#52c41a">Team Management Layer</text>
  
  <rect x="50" y="620" width="1100" height="200" rx="10" fill="#fff7e6" stroke="#fa8c16" stroke-width="2"/>
  <text x="600" y="650" font-family="Arial, sans-serif" font-size="24" font-weight="bold" text-anchor="middle" fill="#fa8c16">Execution Layer</text>
  
  <!-- User Interface Components -->
  <rect x="100" y="160" width="240" height="120" rx="5" fill="#ffffff" stroke="#1890ff" stroke-width="2"/>
  <text x="220" y="200" font-family="Arial, sans-serif" font-size="18" font-weight="bold" text-anchor="middle" fill="#1890ff">Team Builder</text>
  <text x="220" y="230" font-family="Arial, sans-serif" font-size="14" text-anchor="middle" fill="#666">Create and configure teams</text>
  
  <rect x="380" y="160" width="240" height="120" rx="5" fill="#ffffff" stroke="#1890ff" stroke-width="2"/>
  <text x="500" y="200" font-family="Arial, sans-serif" font-size="18" font-weight="bold" text-anchor="middle" fill="#1890ff">Task Assignment</text>
  <text x="500" y="230" font-family="Arial, sans-serif" font-size="14" text-anchor="middle" fill="#666">Delegate work to teams</text>
  
  <rect x="660" y="160" width="240" height="120" rx="5" fill="#ffffff" stroke="#1890ff" stroke-width="2"/>
  <text x="780" y="200" font-family="Arial, sans-serif" font-size="18" font-weight="bold" text-anchor="middle" fill="#1890ff">Monitoring Dashboard</text>
  <text x="780" y="230" font-family="Arial, sans-serif" font-size="14" text-anchor="middle" fill="#666">Track progress in real-time</text>

  <rect x="940" y="160" width="160" height="120" rx="5" fill="#ffffff" stroke="#1890ff" stroke-width="2"/>
  <text x="1020" y="200" font-family="Arial, sans-serif" font-size="18" font-weight="bold" text-anchor="middle" fill="#1890ff">API</text>
  <text x="1020" y="230" font-family="Arial, sans-serif" font-size="14" text-anchor="middle" fill="#666">External integration</text>
  
  <!-- Team Management Components -->
  <rect x="100" y="380" width="240" height="120" rx="5" fill="#ffffff" stroke="#52c41a" stroke-width="2"/>
  <text x="220" y="420" font-family="Arial, sans-serif" font-size="18" font-weight="bold" text-anchor="middle" fill="#52c41a">Team Registry</text>
  <text x="220" y="450" font-family="Arial, sans-serif" font-size="14" text-anchor="middle" fill="#666">Stores team configurations</text>

  <rect x="380" y="380" width="240" height="120" rx="5" fill="#ffffff" stroke="#52c41a" stroke-width="2"/>
  <text x="500" y="420" font-family="Arial, sans-serif" font-size="18" font-weight="bold" text-anchor="middle" fill="#52c41a">Capability Registry</text>
  <text x="500" y="450" font-family="Arial, sans-serif" font-size="14" text-anchor="middle" fill="#666">Available team capabilities</text>

  <rect x="660" y="380" width="240" height="120" rx="5" fill="#ffffff" stroke="#52c41a" stroke-width="2"/>
  <text x="780" y="420" font-family="Arial, sans-serif" font-size="18" font-weight="bold" text-anchor="middle" fill="#52c41a">Model Registry</text>
  <text x="780" y="450" font-family="Arial, sans-serif" font-size="14" text-anchor="middle" fill="#666">AI model configurations</text>

  <rect x="100" y="520" width="240" height="60" rx="5" fill="#ffffff" stroke="#52c41a" stroke-width="2"/>
  <text x="220" y="555" font-family="Arial, sans-serif" font-size="18" font-weight="bold" text-anchor="middle" fill="#52c41a">Team Templates</text>

  <rect x="380" y="520" width="240" height="60" rx="5" fill="#ffffff" stroke="#52c41a" stroke-width="2"/>
  <text x="500" y="555" font-family="Arial, sans-serif" font-size="18" font-weight="bold" text-anchor="middle" fill="#52c41a">Workflow Engine</text>

  <rect x="660" y="520" width="240" height="60" rx="5" fill="#ffffff" stroke="#52c41a" stroke-width="2"/>
  <text x="780" y="555" font-family="Arial, sans-serif" font-size="18" font-weight="bold" text-anchor="middle" fill="#52c41a">Planning Engine</text>

  <rect x="940" y="450" width="160" height="60" rx="5" fill="#ffffff" stroke="#52c41a" stroke-width="2"/>
  <text x="1020" y="485" font-family="Arial, sans-serif" font-size="18" font-weight="bold" text-anchor="middle" fill="#52c41a">Analytics</text>
  
  <!-- Execution Layer Components -->
  <rect x="100" y="680" width="160" height="120" rx="5" fill="#ffffff" stroke="#fa8c16" stroke-width="2"/>
  <text x="180" y="740" font-family="Arial, sans-serif" font-size="18" font-weight="bold" text-anchor="middle" fill="#fa8c16">Manager Agents</text>
  
  <rect x="300" y="680" width="160" height="120" rx="5" fill="#ffffff" stroke="#fa8c16" stroke-width="2"/>
  <text x="380" y="740" font-family="Arial, sans-serif" font-size="18" font-weight="bold" text-anchor="middle" fill="#fa8c16">Developer Agents</text>
  
  <rect x="500" y="680" width="160" height="120" rx="5" fill="#ffffff" stroke="#fa8c16" stroke-width="2"/>
  <text x="580" y="740" font-family="Arial, sans-serif" font-size="18" font-weight="bold" text-anchor="middle" fill="#fa8c16">Content Agents</text>
  
  <rect x="700" y="680" width="160" height="120" rx="5" fill="#ffffff" stroke="#fa8c16" stroke-width="2"/>
  <text x="780" y="740" font-family="Arial, sans-serif" font-size="18" font-weight="bold" text-anchor="middle" fill="#fa8c16">Research Agents</text>
  
  <rect x="900" y="680" width="160" height="120" rx="5" fill="#ffffff" stroke="#fa8c16" stroke-width="2"/>
  <text x="980" y="740" font-family="Arial, sans-serif" font-size="18" font-weight="bold" text-anchor="middle" fill="#fa8c16">Business Agents</text>
  
  <!-- Connections -->
  <!-- UI to Team Management -->
  <line x1="220" y1="280" x2="220" y2="380" stroke="#1890ff" stroke-width="2" stroke-dasharray="5,5"/>
  <line x1="500" y1="280" x2="500" y2="380" stroke="#1890ff" stroke-width="2" stroke-dasharray="5,5"/>
  <line x1="780" y1="280" x2="780" y2="380" stroke="#1890ff" stroke-width="2" stroke-dasharray="5,5"/>
  
  <!-- Team Management to Execution -->
  <line x1="220" y1="580" x2="180" y2="680" stroke="#52c41a" stroke-width="2" stroke-dasharray="5,5"/>
  <line x1="500" y1="580" x2="380" y2="680" stroke="#52c41a" stroke-width="2" stroke-dasharray="5,5"/>
  <line x1="500" y1="580" x2="580" y2="680" stroke="#52c41a" stroke-width="2" stroke-dasharray="5,5"/>
  <line x1="780" y1="580" x2="780" y2="680" stroke="#52c41a" stroke-width="2" stroke-dasharray="5,5"/>
  <line x1="780" y1="580" x2="980" y2="680" stroke="#52c41a" stroke-width="2" stroke-dasharray="5,5"/>
  
  <!-- Manager to Specialists -->
  <path d="M 260 740 C 280 740, 280 740, 300 740" stroke="#fa8c16" stroke-width="2" fill="none" marker-end="url(#arrowhead)"/>
  <path d="M 180 800 C 380 840, 580 840, 780 800" stroke="#fa8c16" stroke-width="2" fill="none" marker-end="url(#arrowhead)"/>
  
  <!-- Definitions -->
  <defs>
    <marker id="arrowhead" markerWidth="10" markerHeight="7" refX="9" refY="3.5" orient="auto">
      <polygon points="0 0, 10 3.5, 0 7" fill="#fa8c16"/>
    </marker>
  </defs>
  
  <!-- Legend -->
  <rect x="50" y="840" width="20" height="20" fill="#e6f7ff" stroke="#1890ff" stroke-width="2"/>
  <text x="80" y="855" font-family="Arial, sans-serif" font-size="14" fill="#333">User Interface Layer</text>
  
  <rect x="250" y="840" width="20" height="20" fill="#f6ffed" stroke="#52c41a" stroke-width="2"/>
  <text x="280" y="855" font-family="Arial, sans-serif" font-size="14" fill="#333">Team Management Layer</text>
  
  <rect x="500" y="840" width="20" height="20" fill="#fff7e6" stroke="#fa8c16" stroke-width="2"/>
  <text x="530" y="855" font-family="Arial, sans-serif" font-size="14" fill="#333">Execution Layer</text>
  
  <line x1="700" y1="850" x2="750" y2="850" stroke="#333" stroke-width="2" stroke-dasharray="5,5"/>
  <text x="760" y="855" font-family="Arial, sans-serif" font-size="14" fill="#333">Data Flow</text>
</svg>
